<?xml version="1.0" encoding="UTF-8"?>
<svg xmlns="http://www.w3.org/2000/svg" xmlns:xlink="http://www.w3.org/1999/xlink" viewBox="0 0 573.39 700.39">
  <defs>
    <style>
      .cls-1 {
        fill: #e7e6e9;
      }

      .cls-2 {
        fill: #ea1b3a;
      }

      .cls-3 {
        fill: #30384f;
      }

      .cls-4 {
        fill: #fae9ab;
      }

      .cls-5 {
        letter-spacing: .05em;
      }

      .cls-6, .cls-7, .cls-8, .cls-9, .cls-10, .cls-11 {
        fill: #fff;
      }

      .cls-12 {
        fill: #bcbccb;
      }

      .cls-13 {
        fill: #bed6f0;
      }

      .cls-14, .cls-15, .cls-16 {
        fill: #626c8c;
      }

      .cls-17 {
        fill: #9497ae;
      }

      .cls-15, .cls-18, .cls-19, .cls-20, .cls-21, .cls-22 {
        mix-blend-mode: multiply;
      }

      .cls-15, .cls-19 {
        opacity: .3;
      }

      .cls-23 {
        fill: #f1646a;
      }

      .cls-24 {
        fill: #f37c7b;
      }

      .cls-7, .cls-20, .cls-8, .cls-10, .cls-11 {
        font-size: 29.08px;
      }

      .cls-7, .cls-20, .cls-25 {
        letter-spacing: -.03em;
      }

      .cls-7, .cls-8, .cls-9, .cls-10, .cls-11 {
        font-family: Comfortaa-Bold, 'Comfortaa Bold';
        font-weight: 700;
      }

      .cls-18 {
        fill: #a1c6e9;
      }

      .cls-19 {
        fill: #8085a0;
      }

      .cls-20 {
        fill: #757b98;
        font-family: Comfortaa, Comfortaa;
      }

      .cls-8 {
        letter-spacing: .05em;
      }

      .cls-26 {
        isolation: isolate;
      }

      .cls-27 {
        letter-spacing: -.03em;
      }

      .cls-28 {
        fill: #bbe6fb;
      }

      .cls-29 {
        fill: #6d6c7d;
      }

      .cls-9 {
        font-size: 24.55px;
        letter-spacing: .05em;
      }

      .cls-30 {
        fill: #4e4e4e;
      }

      .cls-31 {
        fill: #bfbfcd;
      }

      .cls-32 {
        fill: #c4c4d1;
      }

      .cls-33 {
        fill: url(#Degradado_sin_nombre_10);
      }

      .cls-33, .cls-34, .cls-35, .cls-36, .cls-37, .cls-38, .cls-39 {
        mix-blend-mode: overlay;
      }

      .cls-34 {
        fill: url(#Degradado_sin_nombre_12-5);
      }

      .cls-34, .cls-35, .cls-36, .cls-37, .cls-38, .cls-11, .cls-39 {
        opacity: .7;
      }

      .cls-40 {
        fill: #fabeb7;
      }

      .cls-16 {
        fill-rule: evenodd;
      }

      .cls-35 {
        fill: url(#Degradado_sin_nombre_12-4);
      }

      .cls-41 {
        opacity: .8;
      }

      .cls-42 {
        fill: #333;
      }

      .cls-43 {
        fill: #40445a;
      }

      .cls-44 {
        fill: #babbca;
      }

      .cls-45 {
        fill: #92bfe6;
      }

      .cls-46 {
        fill: #a4a6ba;
      }

      .cls-36 {
        fill: url(#Degradado_sin_nombre_12-2);
      }

      .cls-37 {
        fill: url(#Degradado_sin_nombre_12-3);
      }

      .cls-47 {
        fill: #7b819d;
      }

      .cls-38 {
        fill: url(#Degradado_sin_nombre_12-6);
      }

      .cls-48 {
        fill: #b1cfed;
      }

      .cls-49 {
        fill: #b4b5c5;
      }

      .cls-50, .cls-51 {
        fill: #2676bc;
      }

      .cls-52 {
        letter-spacing: .03em;
      }

      .cls-53 {
        fill: #171717;
      }

      .cls-51 {
        opacity: .6;
      }

      .cls-54 {
        fill: #757485;
      }

      .cls-55 {
        fill: #383e54;
      }

      .cls-56 {
        fill: #54a4db;
      }

      .cls-57 {
        fill: #161616;
      }

      .cls-58 {
        fill: #f9f8fa;
      }

      .cls-59 {
        fill: #9c9eb4;
      }

      .cls-60 {
        fill: #85b8e3;
      }

      .cls-21 {
        fill: #f7a7a1;
      }

      .cls-39 {
        fill: url(#Degradado_sin_nombre_12);
      }

      .cls-61 {
        fill: #595a6d;
      }

      .cls-22 {
        fill: #f9e495;
      }

      .cls-62 {
        fill: #56576a;
      }

      .cls-63 {
        fill: #4f5165;
      }

      .cls-64 {
        fill: #d1d0d5;
      }

      .cls-65 {
        fill: #d5d5de;
      }

      .cls-66 {
        fill: #f5d434;
      }

      .cls-67 {
        fill: #f9b9b3;
      }

      .cls-68 {
        fill: #888ca6;
      }

      .cls-69 {
        fill: #e2e1e7;
      }
    </style>
    <linearGradient id="Degradado_sin_nombre_12" data-name="Degradado sin nombre 12" x1="337.1" y1="104.38" x2="302.8" y2=".72" gradientUnits="userSpaceOnUse">
      <stop offset="0" stop-color="#ecf8fe"/>
      <stop offset="1" stop-color="#30384f" stop-opacity="0"/>
    </linearGradient>
    <linearGradient id="Degradado_sin_nombre_12-2" data-name="Degradado sin nombre 12" x1="108.03" y1="140.33" x2="73.73" y2="36.67" xlink:href="#Degradado_sin_nombre_12"/>
    <linearGradient id="Degradado_sin_nombre_12-3" data-name="Degradado sin nombre 12" x1="225.89" y1="78.51" x2="191.59" y2="-25.15" xlink:href="#Degradado_sin_nombre_12"/>
    <linearGradient id="Degradado_sin_nombre_12-4" data-name="Degradado sin nombre 12" x1="58.94" y1="286.22" x2="24.64" y2="182.55" xlink:href="#Degradado_sin_nombre_12"/>
    <linearGradient id="Degradado_sin_nombre_10" data-name="Degradado sin nombre 10" x1="500.67" y1="213.15" x2="555.2" y2="366.25" gradientTransform="translate(-373.69 568.83) rotate(-45)" gradientUnits="userSpaceOnUse">
      <stop offset="0" stop-color="#30384f" stop-opacity="0"/>
      <stop offset="1" stop-color="#ecf8fe"/>
    </linearGradient>
    <linearGradient id="Degradado_sin_nombre_12-5" data-name="Degradado sin nombre 12" x1="141.22" y1="363.85" x2="106.93" y2="260.19" xlink:href="#Degradado_sin_nombre_12"/>
    <linearGradient id="Degradado_sin_nombre_12-6" data-name="Degradado sin nombre 12" x1="418.67" y1="172.11" x2="384.37" y2="68.45" xlink:href="#Degradado_sin_nombre_12"/>
  </defs>
  <g class="cls-26">
    <g id="Layer_2" data-name="Layer 2">
      <g id="Layer_1-2" data-name="Layer 1">
        <g class="cls-41">
          <polygon class="cls-43" points="206.98 189.63 86.64 267.66 85.19 266.87 85.19 170.31 206.98 93.07 208.4 93.87 206.98 189.63"/>
          <g>
            <polygon class="cls-3" points="208.43 190.43 86.64 267.66 86.64 171.11 208.42 93.87 208.43 190.43"/>
            <g>
              <polygon class="cls-6" points="98.07 181.67 94.68 183.82 94.68 180.78 98.07 178.63 98.07 181.67"/>
              <polygon class="cls-66" points="147.61 150.25 101.85 179.28 101.85 176.24 147.61 147.21 147.61 150.25"/>
              <polygon class="cls-6" points="98.07 188.81 94.68 190.96 94.68 187.92 98.07 185.77 98.07 188.81"/>
              <polygon class="cls-66" points="122.98 173.01 101.85 186.42 101.85 183.38 122.98 169.97 122.98 173.01"/>
              <polygon class="cls-6" points="98.07 195.95 94.68 198.1 94.68 195.06 98.07 192.91 98.07 195.95"/>
              <polygon class="cls-66" points="133.92 173.21 101.85 193.56 101.85 190.51 133.92 170.17 133.92 173.21"/>
              <polygon class="cls-6" points="98.07 203.09 94.68 205.24 94.68 202.2 98.07 200.05 98.07 203.09"/>
              <polygon class="cls-66" points="140.13 176.42 101.85 200.7 101.85 197.65 140.13 173.37 140.13 176.42"/>
            </g>
            <g>
              <polygon class="cls-6" points="98.07 213.48 94.68 215.63 94.68 212.58 98.07 210.43 98.07 213.48"/>
              <polygon class="cls-23" points="126.09 195.71 101.85 211.08 101.85 208.04 126.09 192.66 126.09 195.71"/>
              <polygon class="cls-6" points="98.07 220.62 94.68 222.77 94.68 219.72 98.07 217.57 98.07 220.62"/>
              <polygon class="cls-23" points="146.35 190 101.85 218.22 101.85 215.18 146.35 186.96 146.35 190"/>
              <polygon class="cls-6" points="98.07 227.76 94.68 229.91 94.68 226.86 98.07 224.71 98.07 227.76"/>
              <polygon class="cls-23" points="119.39 214.24 101.85 225.36 101.85 222.32 119.39 211.2 119.39 214.24"/>
              <polygon class="cls-6" points="98.07 234.9 94.68 237.05 94.68 234 98.07 231.85 98.07 234.9"/>
              <polygon class="cls-23" points="133.22 212.61 101.85 232.5 101.85 229.46 133.22 209.56 133.22 212.61"/>
            </g>
            <g>
              <polygon class="cls-6" points="170.2 135.21 172.78 133.57 172.78 131.25 170.2 132.88 170.2 135.21"/>
              <polygon class="cls-6" points="193.63 118.02 175.66 129.42 175.66 131.74 193.63 120.35 193.63 118.02"/>
              <polygon class="cls-6" points="170.2 140.65 172.78 139.01 172.78 136.69 170.2 138.33 170.2 140.65"/>
              <polygon class="cls-6" points="183.96 129.6 175.66 134.86 175.66 137.19 183.96 131.92 183.96 129.6"/>
              <polygon class="cls-6" points="170.2 146.1 172.78 144.46 172.78 142.14 170.2 143.77 170.2 146.1"/>
              <polygon class="cls-6" points="188.26 132.32 175.66 140.31 175.66 142.63 188.26 134.64 188.26 132.32"/>
              <polygon class="cls-6" points="170.2 151.54 172.78 149.9 172.78 147.58 170.2 149.22 170.2 151.54"/>
              <polygon class="cls-6" points="190.69 136.22 175.66 145.76 175.66 148.08 190.69 138.54 190.69 136.22"/>
              <polygon class="cls-6" points="170.2 159.46 172.78 157.82 172.78 155.5 170.2 157.14 170.2 159.46"/>
              <polygon class="cls-6" points="187.37 146.25 175.66 153.68 175.66 156 187.37 148.57 187.37 146.25"/>
              <polygon class="cls-6" points="170.2 164.91 172.78 163.27 172.78 160.95 170.2 162.59 170.2 164.91"/>
              <polygon class="cls-6" points="175.66 159.12 175.66 161.44 197.16 147.81 197.16 145.49 175.66 159.12"/>
              <polygon class="cls-6" points="170.2 170.35 172.78 168.71 172.78 166.39 170.2 168.03 170.2 170.35"/>
              <polygon class="cls-6" points="184.14 159.19 175.66 164.57 175.66 166.89 184.14 161.51 184.14 159.19"/>
              <polygon class="cls-6" points="170.2 175.8 172.78 174.16 172.78 171.84 170.2 173.48 170.2 175.8"/>
              <polygon class="cls-6" points="175.66 172.33 190.82 162.72 190.82 160.4 175.66 170.01 175.66 172.33"/>
            </g>
          </g>
        </g>
        <g class="cls-41">
          <polygon class="cls-60" points="272.52 187.52 152.18 265.55 150.73 264.76 150.73 168.2 272.52 90.96 273.93 91.76 272.52 187.52"/>
          <g>
            <polygon class="cls-13" points="274.03 188.45 152.25 265.68 152.24 169.13 274.03 91.89 274.03 188.45"/>
            <g>
              <polygon class="cls-56" points="251.51 177.68 174.76 226.36 174.76 181.24 251.51 132.56 251.51 177.68"/>
              <polygon class="cls-6" points="245.31 147.29 180.96 188.1 180.96 186.15 245.31 145.35 245.31 147.29"/>
              <polygon class="cls-6" points="245.31 154.11 180.96 194.92 180.96 192.97 245.31 152.16 245.31 154.11"/>
              <polygon class="cls-6" points="245.31 160.92 180.97 201.73 180.97 199.79 245.31 158.98 245.31 160.92"/>
            </g>
            <polygon class="cls-56" points="274.03 101.2 152.24 178.44 152.24 169.13 274.03 91.89 274.03 101.2"/>
          </g>
        </g>
        <g>
          <path class="cls-66" d="M293.87,53.86c-1.35,2.58-2.19,5.48-2.19,8.1v45c0,5.26,9.85,12.67,13.99,10.04l32.43-25.89c2.12-1.34,4.03-3.67,5.39-6.32-15.33-9.54-33.44-22.84-49.63-30.94Z"/>
          <path class="cls-4" d="M338.11,91.12l-32.43,25.89c-4.15,2.63-13.99-4.78-13.99-10.04V61.97c0-5.26,3.36-11.66,7.51-14.29l35.48-22.5c4.15-2.63,14.49,2.77,14.54,7.45l-3.59,44.21c0,5.26-3.36,11.66-7.51,14.29Z"/>
          <path class="cls-66" d="M293.87,53.86c-1.35,2.58-2.19,5.48-2.19,8.1v45c0,5.26,9.85,12.67,13.99,10.04l32.43-25.89c2.12-1.34,4.03-3.67,5.39-6.32-15.33-9.54-33.44-22.84-49.63-30.94Z"/>
          <path class="cls-22" d="M293.87,53.86c-1.35,2.58-2.19,5.48-2.19,8.1v45c0,5.26,9.85,12.67,13.99,10.04l32.43-25.89c2.12-1.34,4.03-3.67,5.39-6.32-15.33-9.54-33.44-22.84-49.63-30.94Z"/>
          <path class="cls-66" d="M342.09,94.04l-35.48,22.5c-4.15,2.63-7.51,.5-7.51-4.76v-45c0-5.26,3.36-11.66,7.51-14.29l35.48-22.5c4.15-2.63,7.51-.5,7.51,4.76v45c0,5.26-3.36,11.66-7.51,14.29Z"/>
          <text class="cls-20" transform="translate(311.2 90.89) rotate(-32.38) scale(.93 .84) skewX(-29.84)"><tspan x="0" y="0">&lt;/&gt;</tspan></text>
          <path class="cls-39" d="M349.6,46.75v-12.01c0-5.26-3.36-7.39-7.51-4.76l-35.48,22.5c-4.15,2.63-7.51,9.03-7.51,14.29v31.78c14.24-23.05,31.89-41.73,50.5-51.8Z"/>
        </g>
        <g>
          <path class="cls-28" d="M109.04,127.08l-32.43,25.89c-4.15,2.63-13.99-4.78-13.99-10.04v-45c0-5.26,3.36-11.66,7.51-14.29l35.48-22.5c4.15-2.63,14.49,2.77,14.54,7.45l-3.59,44.21c0,5.26-3.36,11.66-7.51,14.29Z"/>
          <path class="cls-56" d="M64.79,89.82c-1.35,2.58-2.19,5.48-2.19,8.1v45c0,5.26,9.85,12.67,13.99,10.04l32.43-25.89c2.12-1.34,4.03-3.67,5.39-6.32-15.33-9.54-33.44-22.84-49.63-30.94Z"/>
          <path class="cls-56" d="M64.79,89.82c-1.35,2.58-2.19,5.48-2.19,8.1v45c0,5.26,9.85,12.67,13.99,10.04l32.43-25.89c2.12-1.34,4.03-3.67,5.39-6.32-15.33-9.54-33.44-22.84-49.63-30.94Z"/>
          <path class="cls-18" d="M64.79,89.82c-1.35,2.58-2.19,5.48-2.19,8.1v45c0,5.26,9.85,12.67,13.99,10.04l32.43-25.89c2.12-1.34,4.03-3.67,5.39-6.32-15.33-9.54-33.44-22.84-49.63-30.94Z"/>
          <path class="cls-56" d="M113.02,129.99l-35.48,22.5c-4.15,2.63-7.51,.5-7.51-4.76v-45c0-5.26,3.36-11.66,7.51-14.29l35.48-22.5c4.15-2.63,7.51-.5,7.51,4.76v45c0,5.26-3.36,11.66-7.51,14.29Z"/>
          <text class="cls-9" transform="translate(83.27 125.36) rotate(-32.38) scale(.93 .84) skewX(-29.84)"><tspan x="0" y="0">{...}</tspan></text>
          <path class="cls-36" d="M120.53,82.71v-12.01c0-5.26-3.36-7.39-7.51-4.76l-35.48,22.5c-4.15,2.63-7.51,9.03-7.51,14.29v31.78c14.24-23.05,31.89-41.73,50.5-51.8Z"/>
        </g>
        <g>
          <path class="cls-67" d="M229.03,66.64l-32.43,25.89c-4.15,2.63-13.99-4.78-13.99-10.04V37.48c0-5.26,3.36-11.66,7.51-14.29L225.59,.69c4.15-2.63,14.49,2.77,14.54,7.45l-3.59,44.21c0,5.26-3.36,11.66-7.51,14.29Z"/>
          <path class="cls-23" d="M184.78,29.38c-1.35,2.58-2.19,5.48-2.19,8.1v45c0,5.26,9.85,12.67,13.99,10.04l32.43-25.89c2.12-1.34,4.03-3.67,5.39-6.32-15.33-9.54-33.44-22.84-49.63-30.94Z"/>
          <path class="cls-21" d="M184.78,29.38c-1.35,2.58-2.19,5.48-2.19,8.1v45c0,5.26,9.85,12.67,13.99,10.04l32.43-25.89c2.12-1.34,4.03-3.67,5.39-6.32-15.33-9.54-33.44-22.84-49.63-30.94Z"/>
          <path class="cls-24" d="M233.01,69.55l-35.48,22.5c-4.15,2.63-7.51,.5-7.51-4.76V42.29c0-5.26,3.36-11.66,7.51-14.29L233.01,5.5c4.15-2.63,7.51-.5,7.51,4.76V55.26c0,5.26-3.36,11.66-7.51,14.29Z"/>
          <text class="cls-10" transform="translate(196.12 72.69) rotate(-32.38) scale(.93 .84) skewX(-29.84)"><tspan class="cls-52" x="0" y="0">D</tspan><tspan class="cls-5" x="20.1" y="0">TD</tspan></text>
          <path class="cls-37" d="M238.39,20.88V8.88c0-5.26-3.36-7.39-7.51-4.76l-35.48,22.5c-4.15,2.63-7.51,9.03-7.51,14.29v31.78c14.24-23.05,31.89-41.73,50.5-51.8Z"/>
        </g>
        <g>
          <path class="cls-66" d="M15.71,235.7c-1.35,2.58-2.19,5.48-2.19,8.1v45c0,5.26,9.85,12.67,13.99,10.04l32.43-25.89c2.12-1.34,4.03-3.67,5.39-6.32-15.33-9.54-33.44-22.84-49.63-30.94Z"/>
          <path class="cls-4" d="M59.95,272.96l-32.43,25.89c-4.15,2.63-13.99-4.78-13.99-10.04v-45c0-5.26,3.36-11.66,7.51-14.29l35.48-22.5c4.15-2.63,14.49,2.77,14.54,7.45l-3.59,44.21c0,5.26-3.36,11.66-7.51,14.29Z"/>
          <path class="cls-66" d="M15.71,235.7c-1.35,2.58-2.19,5.48-2.19,8.1v45c0,5.26,9.85,12.67,13.99,10.04l32.43-25.89c2.12-1.34,4.03-3.67,5.39-6.32-15.33-9.54-33.44-22.84-49.63-30.94Z"/>
          <path class="cls-22" d="M15.71,235.7c-1.35,2.58-2.19,5.48-2.19,8.1v45c0,5.26,9.85,12.67,13.99,10.04l32.43-25.89c2.12-1.34,4.03-3.67,5.39-6.32-15.33-9.54-33.44-22.84-49.63-30.94Z"/>
          <path class="cls-66" d="M63.93,275.88l-35.48,22.5c-4.15,2.63-7.51,.5-7.51-4.76v-45c0-5.26,3.36-11.66,7.51-14.29l35.48-22.5c4.15-2.63,7.51-.5,7.51,4.76v45c0,5.26-3.36,11.66-7.51,14.29Z"/>
          <text class="cls-20" transform="translate(27.83 276.38) rotate(-32.38) scale(.93 .84) skewX(-29.84)"><tspan x="0" y="0">XML</tspan></text>
          <path class="cls-35" d="M71.44,228.59v-12.01c0-5.26-3.36-7.39-7.51-4.76l-35.48,22.5c-4.15,2.63-7.51,9.03-7.51,14.29v31.78c14.24-23.05,31.89-41.73,50.5-51.8Z"/>
        </g>
        <g>
          <g>
            <path class="cls-3" d="M405.7,558.26l1.01,15.23s1.75,8.79-5.13,15.17c-6.88,6.38-17.16,3.96-24.69,0-5.97-3.14-23.84-12.01-31.37-25.33-1.86-3.29-6.19-10.72,1.76-15.35,5.13-2.99,15.82,1.63,23.42,3.53,4.65,1.16,12.21,2.45,12.21,2.45,0,0,6.76-4.99,13.6-1.89,6.84,3.1,9.68-.04,9.2,6.19Z"/>
            <path class="cls-53" d="M376.78,542.71s-1.73,15.55,11.64,18.82c13.37,3.27,22.7-.91,24.27-9.17,.97-5.12,5.49-53.21,8.23-80.14l-35.09-29.93-9.05,100.42Z"/>
            <path class="cls-53" d="M514.71,482.03c-1.66-13.53-6.25-26.5-7.66-40.01l-31.39,10.45s-48.67-23.43-62.34-25.48c-7.87-1.18-14.7-1.59-21.95,5.69-9.01,9.05-7.46,19.82-7.46,19.82l.62,6.35,53.02,31.17c0-.11,19.97,12.04,30.03,15.24,15.39,4.91,35.92,.91,43.86-4,1.09-.67,2.53-1.52,4.2-2.49-.03-5.6-.26-11.19-.94-16.73Z"/>
            <path class="cls-55" d="M362.21,590.34l1.01,15.23s1.75,8.79-5.13,15.17c-6.88,6.38-17.16,3.96-24.69,0-5.97-3.14-23.84-12.01-31.37-25.33-1.86-3.29-6.19-10.72,1.76-15.35,5.13-2.99,15.82,1.63,23.42,3.53,4.65,1.16,12.21,2.45,12.21,2.45,0,0,6.76-4.99,13.6-1.89,6.84,3.1,9.68-.04,9.2,6.19Z"/>
            <g>
              <path class="cls-3" d="M520.36,674.63c-1.95-1.24-3.67-1.1-4.72,.1l-.1-.16-9.65,5.96,7.6,15.64,10.86-5.83c1.09-.8,1.69-2.29,1.69-5.3,0-4.06-2.47-8.37-5.67-10.41Z"/>
              <path class="cls-3" d="M515.55,692.03c0,4.06-2.6,5.71-5.8,3.68-3.2-2.03-5.8-6.97-5.8-11.04,0-4.06,2.6-5.71,5.8-3.68,3.2,2.03,5.8,6.97,5.8,11.04Z"/>
            </g>
            <g>
              <path class="cls-3" d="M403.47,677.81c1.95-1.24,3.67-1.1,4.72,.1l.1-.16,9.65,5.96-7.6,15.64-10.86-5.83c-1.09-.8-1.69-2.29-1.69-5.3,0-4.06,2.47-8.37,5.67-10.41Z"/>
              <path class="cls-3" d="M408.28,695.21c0,4.06,2.6,5.71,5.8,3.68,3.2-2.03,5.8-6.97,5.8-11.04,0-4.06-2.6-5.71-5.8-3.68-3.2,2.03-5.8,6.97-5.8,11.04Z"/>
            </g>
            <g>
              <path class="cls-3" d="M511.55,621.63c1.95-1.24,3.67-1.1,4.72,.1l.1-.16,9.65,5.96-7.6,15.64-10.86-5.83c-1.09-.8-1.69-2.29-1.69-5.3,0-4.06,2.47-8.37,5.67-10.41Z"/>
              <path class="cls-3" d="M516.36,639.02c0,4.06,2.6,5.71,5.8,3.68,3.2-2.03,5.8-6.97,5.8-11.04,0-4.06-2.6-5.71-5.8-3.68-3.2,2.03-5.8,6.97-5.8,11.04Z"/>
            </g>
            <g>
              <path class="cls-3" d="M420.97,621.63c-1.95-1.24-3.67-1.1-4.72,.1l-.1-.16-9.65,5.96,7.6,15.64,10.86-5.83c1.09-.8,1.69-2.29,1.69-5.3,0-4.06-2.47-8.37-5.67-10.41Z"/>
              <path class="cls-3" d="M416.15,639.02c0,4.06-2.6,5.71-5.8,3.68-3.2-2.03-5.8-6.97-5.8-11.04,0-4.06,2.6-5.71,5.8-3.68,3.2,2.03,5.8,6.97,5.8,11.04Z"/>
            </g>
            <path class="cls-29" d="M465.84,641.53l-49.78-26.59s-2.58-1.72-6.12,.4c-3.54,2.12-3.87,4.99-3.87,4.99v3.89l51.36,28.27,8.41-10.95Z"/>
            <path class="cls-29" d="M459.57,643.65l52.67-28.71s2.3-1.72,5.84,.4c3.54,2.12,3.59,4.99,3.59,4.99v3.89l-53.97,30.39-8.13-10.95Z"/>
            <path class="cls-43" d="M456.94,624.92h10.72c3.26,0,5.9,2.64,5.9,5.9v27.67h-22.52v-27.67c0-3.26,2.64-5.9,5.9-5.9Z"/>
            <path class="cls-3" d="M457.35,596.94v31.51s.07,6.36,5.86,6.36,4.57-5.65,4.57-5.65v-32.22h-10.43Z"/>
            <path class="cls-43" d="M451.27,568.08v29.68s3.79,5.3,10.54,5.3,11.19-5.3,11.19-5.3v-33.92l-21.73,4.24Z"/>
            <path class="cls-53" d="M331.84,577.11s-1.68,15.11,11.31,18.28c12.99,3.17,22.05-.89,23.58-8.91,.95-4.98,5.33-51.7,8-77.86l-34.09-29.08-8.79,97.57Z"/>
            <path class="cls-50" d="M420.97,496.52c13.82-9.72,23.24-15.12,34.74-16.96,16.57-2.65,38.44,5.48,50.66,11.13,7.88,3.65,31.2,14.49,25.73,28.62-3.89,10.06-23,17.32-36.99,24.74-13.99,7.42-32.17,20.5-47.61,21.56-15.44,1.06-32.33-7.95-46.32-18.02-13.99-10.07-12.55-24.56-3.38-33.57,7.41-7.29,11.1-9.01,23.16-17.49Z"/>
            <path class="cls-53" d="M516.59,456.44l-84.42,28.11s-48.67-23.43-62.34-25.48c-7.87-1.18-14.7-1.59-21.95,5.69-9.01,9.05-7.46,19.82-7.46,19.82l.62,6.35,53.02,31.17c0-.11,19.97,12.04,30.03,15.24,15.39,4.91,35.92,.91,43.86-4,7.94-4.91,33.75-18.54,43.68-30.54,9.93-12,4.96-46.35,4.96-46.35Z"/>
            <g>
              <path class="cls-3" d="M390.43,527.79v14.84s2.32,15.2,16.8,23.68c14.47,8.48,37.03,15.55,47.96,10.95,10.94-4.59,52.13-27.92,61.13-33.22,9.01-5.3,13.52-8.13,15.13-12.72,1.61-4.59,.33-18.73,.33-18.73,0,0-23.48,20.5-50.5,30.39-27.02,9.89-37.38,15.55-50.57,12.01-13.19-3.53-40.28-27.21-40.28-27.21Z"/>
              <path class="cls-43" d="M449.44,574.44c-4-7.04-1.36-14.8,2.96-20.88-8.37,2.59-14.65,3.32-21.69,1.44-13.19-3.53-40.28-27.21-40.28-27.21v14.84s2.32,15.2,16.8,23.68c13.43,7.87,33.81,14.51,45.42,11.76-1.13-1.07-2.17-2.28-3.21-3.64Z"/>
            </g>
            <path class="cls-29" d="M403.6,680.75s-4.58-8.13,2.49-10.95c7.08-2.83,46.44-24.38,46.44-24.38,0,0,8.48,1.41,8.48,4.95s.96,7.77,.96,7.77c0,0-42.78,21.91-46.96,24.38-4.18,2.47-7.72,.71-11.42-1.77Z"/>
            <path class="cls-29" d="M523.78,680.75s3.62-8.13-3.46-10.95c-7.08-2.83-46.12-25.44-46.12-25.44,0,0-8.16,1.41-8.16,4.95v7.77s42.46,22.97,46.64,25.44c4.18,2.47,7.4,.71,11.1-1.77Z"/>
          </g>
          <g>
            <g>
              <path class="cls-69" d="M263.64,700.39h0c-4,0-7.25-3.56-7.25-7.96v-179.92h14.49v179.92c0,4.4-3.24,7.96-7.25,7.96Z"/>
              <path class="cls-12" d="M263.24,512.51v187.84c.14,0,.26,.04,.4,.04,4,0,7.25-3.56,7.25-7.96v-179.92h-7.65Z"/>
            </g>
            <g>
              <path class="cls-69" d="M111.9,600.15h0c-4,0-7.25-3.56-7.25-7.96v-179.92h14.49v179.92c0,4.4-3.24,7.96-7.25,7.96Z"/>
              <path class="cls-12" d="M111.5,412.27v187.84c.14,0,.26,.04,.4,.04,4,0,7.25-3.56,7.25-7.96v-179.92h-7.65Z"/>
            </g>
            <g>
              <path class="cls-69" d="M544.68,321.42h14.49v183.67c0,2.33-1.89,4.22-4.22,4.22h-6.06c-2.33,0-4.22-1.89-4.22-4.22v-183.67h0Z"/>
              <path class="cls-12" d="M551.53,321.42v187.84c.14,0,.26,.04,.4,.04,4,0,7.25-3.56,7.25-7.96v-179.92h-7.65Z"/>
            </g>
            <g>
              <path class="cls-65" d="M400.19,409.06h0c-4,0-7.25-3.56-7.25-7.96V221.18h14.49v179.92c0,4.4-3.24,7.96-7.25,7.96Z"/>
              <path class="cls-32" d="M399.78,221.18v187.84c.14,0,.26,.04,.4,.04,4,0,7.25-3.56,7.25-7.96V221.18h-7.65Z"/>
            </g>
            <g>
              <polygon class="cls-58" points="573.39 316.23 255.52 517.85 85.96 410.3 403.83 208.68 573.39 316.23"/>
              <polygon class="cls-49" points="255.47 531.1 255.47 517.8 85.91 410.25 85.91 423.55 255.47 531.1"/>
              <polygon class="cls-59" points="573.32 329.59 573.32 316.28 255.45 517.9 255.45 531.2 573.32 329.59"/>
            </g>
          </g>
          <g>
            <polygon class="cls-15" points="408.37 325.92 300.57 395.48 255.21 369.4 256.27 379.84 301.13 401.57 408.75 333.06 408.37 325.92"/>
            <polygon class="cls-46" points="255.21 367.51 256.27 377.95 301.13 399.68 300.57 393.6 255.21 367.51"/>
            <polygon class="cls-6" points="366.44 298.28 408.41 324.24 300.57 393.6 255.21 367.51 366.44 298.28"/>
            <polygon class="cls-68" points="408.37 324.03 300.57 393.6 301.13 399.68 408.75 331.17 408.37 324.03"/>
            <g>
              <polygon class="cls-16" points="270.64 368.47 266.53 365.88 270.82 363.15 274.93 365.74 270.64 368.47"/>
              <polygon class="cls-16" points="279 363.15 274.9 360.56 279.19 357.83 283.29 360.42 279 363.15"/>
              <polygon class="cls-16" points="284.36 359.74 280.26 357.15 284.55 354.42 288.65 357.01 284.36 359.74"/>
              <polygon class="cls-16" points="289.72 356.33 285.62 353.74 289.91 351.01 294.01 353.6 289.72 356.33"/>
              <polygon class="cls-16" points="298.09 351 293.98 348.41 298.27 345.68 302.38 348.27 298.09 351"/>
              <polygon class="cls-16" points="303.45 347.59 299.35 345 303.64 342.27 307.74 344.86 303.45 347.59"/>
              <polygon class="cls-16" points="308.81 344.18 304.71 341.59 309 338.86 313.1 341.45 308.81 344.18"/>
              <polygon class="cls-16" points="317.17 338.85 313.07 336.26 317.36 333.53 321.46 336.12 317.17 338.85"/>
              <polygon class="cls-16" points="322.54 335.44 318.43 332.85 322.72 330.12 326.82 332.71 322.54 335.44"/>
              <polygon class="cls-16" points="327.9 332.03 323.79 329.44 328.08 326.71 332.19 329.3 327.9 332.03"/>
              <polygon class="cls-16" points="336.48 326.57 332.37 323.98 336.66 321.25 340.76 323.84 336.48 326.57"/>
              <polygon class="cls-16" points="341.59 323.17 337.55 320.51 341.95 317.82 345.99 320.49 341.59 323.17"/>
              <polygon class="cls-16" points="347.2 319.75 343.09 317.15 347.38 314.42 351.49 317.02 347.2 319.75"/>
              <polygon class="cls-16" points="354.06 315.38 349.96 312.79 354.25 310.06 358.35 312.65 354.06 315.38"/>
              <polygon class="cls-16" points="359.42 311.96 355.32 309.37 359.61 306.64 363.71 309.24 359.42 311.96"/>
              <polygon class="cls-16" points="364.78 308.55 360.68 305.96 364.97 303.23 369.07 305.82 364.78 308.55"/>
              <polygon class="cls-16" points="372.37 313.34 368.27 310.75 372.56 308.02 376.66 310.61 372.37 313.34"/>
              <polygon class="cls-16" points="377.5 316.58 373.4 313.99 377.69 311.26 381.79 313.85 377.5 316.58"/>
              <polygon class="cls-16" points="367.01 316.76 362.91 314.17 367.2 311.44 371.3 314.03 367.01 316.76"/>
              <polygon class="cls-16" points="372.14 320 368.04 317.4 372.33 314.67 376.43 317.27 372.14 320"/>
              <polygon class="cls-16" points="361.65 320.17 357.55 317.58 361.84 314.85 365.94 317.44 361.65 320.17"/>
              <polygon class="cls-16" points="366.78 323.41 362.68 320.82 366.97 318.09 371.07 320.68 366.78 323.41"/>
              <polygon class="cls-16" points="392.69 326.17 388.58 323.58 392.87 320.85 396.97 323.44 392.69 326.17"/>
              <polygon class="cls-16" points="387.32 329.58 383.22 326.99 387.51 324.26 391.61 326.85 387.32 329.58"/>
              <polygon class="cls-16" points="381.96 332.99 377.86 330.4 382.15 327.67 386.25 330.26 381.96 332.99"/>
              <polygon class="cls-16" points="382.2 326.34 378.09 323.75 382.38 321.02 386.48 323.61 382.2 326.34"/>
              <polygon class="cls-16" points="347.71 329.04 343.61 326.45 347.9 323.72 352 326.31 347.71 329.04"/>
              <polygon class="cls-16" points="342.35 332.45 338.25 329.86 342.54 327.13 346.64 329.72 342.35 332.45"/>
              <polygon class="cls-16" points="336.99 335.87 332.89 333.28 337.18 330.55 341.28 333.14 336.99 335.87"/>
              <polygon class="cls-16" points="331.63 339.28 327.52 336.69 331.81 333.96 335.92 336.55 331.63 339.28"/>
              <polygon class="cls-16" points="326.27 342.69 322.16 340.1 326.45 337.37 330.56 339.96 326.27 342.69"/>
              <polygon class="cls-16" points="320.91 346.1 316.8 343.51 321.09 340.78 325.19 343.37 320.91 346.1"/>
              <polygon class="cls-16" points="315.54 349.52 311.44 346.93 315.73 344.2 319.83 346.79 315.54 349.52"/>
              <polygon class="cls-16" points="310.18 352.93 306.08 350.34 310.37 347.61 314.47 350.2 310.18 352.93"/>
              <polygon class="cls-16" points="304.82 356.34 300.72 353.75 305.01 351.02 309.11 353.61 304.82 356.34"/>
              <polygon class="cls-16" points="299.46 359.75 295.36 357.16 299.86 354.3 303.96 356.89 299.46 359.75"/>
              <polygon class="cls-16" points="294.1 363.17 290 360.58 294.5 357.71 298.6 360.3 294.1 363.17"/>
              <polygon class="cls-16" points="288.74 366.58 284.63 363.99 289.14 361.12 293.24 363.71 288.74 366.58"/>
              <polygon class="cls-16" points="283.59 369.85 279.49 367.26 283.78 364.53 287.88 367.12 283.59 369.85"/>
              <polygon class="cls-16" points="278.23 373.27 274.13 370.68 278.41 367.95 282.52 370.54 278.23 373.27"/>
              <polygon class="cls-16" points="291.29 371.45 287.19 368.86 291.48 366.13 295.58 368.72 291.29 371.45"/>
              <polygon class="cls-16" points="296.65 368.04 292.55 365.45 296.84 362.72 300.94 365.31 296.65 368.04"/>
              <polygon class="cls-16" points="302.02 364.63 297.91 362.04 302.2 359.31 306.3 361.9 302.02 364.63"/>
              <polygon class="cls-16" points="307.38 361.22 303.27 358.63 307.56 355.9 311.67 358.49 307.38 361.22"/>
              <polygon class="cls-16" points="312.74 357.8 308.64 355.21 312.92 352.48 317.03 355.07 312.74 357.8"/>
              <polygon class="cls-16" points="318.1 354.39 314 351.8 318.29 349.07 322.39 351.66 318.1 354.39"/>
              <polygon class="cls-16" points="323.46 350.98 319.36 348.39 323.65 345.66 327.75 348.25 323.46 350.98"/>
              <polygon class="cls-16" points="328.61 347.7 324.5 345.11 329.01 342.25 333.11 344.84 328.61 347.7"/>
              <polygon class="cls-16" points="333.97 344.29 329.87 341.7 334.37 338.83 338.47 341.42 333.97 344.29"/>
              <polygon class="cls-16" points="339.33 340.88 335.23 338.29 339.73 335.42 343.83 338.01 339.33 340.88"/>
              <polygon class="cls-16" points="344.69 337.47 340.59 334.88 344.88 332.15 348.98 334.74 344.69 337.47"/>
              <polygon class="cls-16" points="350.05 334.05 345.95 331.46 350.24 328.73 354.34 331.32 350.05 334.05"/>
              <polygon class="cls-16" points="351.54 339.61 347.23 336.89 351.52 334.16 355.83 336.88 351.54 339.61"/>
              <polygon class="cls-16" points="346.18 343.02 341.87 340.3 346.16 337.58 350.46 340.29 346.18 343.02"/>
              <polygon class="cls-16" points="340.81 346.44 336.51 343.72 340.79 340.99 345.1 343.71 340.81 346.44"/>
              <polygon class="cls-16" points="335.45 349.85 331.14 347.13 335.43 344.4 339.74 347.12 335.45 349.85"/>
              <polygon class="cls-16" points="330.09 353.26 325.78 350.54 330.07 347.81 334.38 350.53 330.09 353.26"/>
              <polygon class="cls-16" points="324.73 356.67 320.42 353.95 324.71 351.22 329.02 353.94 324.73 356.67"/>
              <polygon class="cls-16" points="319.37 360.09 315.06 357.37 319.35 354.64 323.66 357.36 319.37 360.09"/>
              <polygon class="cls-16" points="314.01 363.5 309.7 360.78 313.99 358.05 318.3 360.77 314.01 363.5"/>
              <polygon class="cls-16" points="308.65 366.91 304.34 364.19 308.84 361.33 313.15 364.04 308.65 366.91"/>
              <polygon class="cls-16" points="303.28 370.32 298.98 367.6 303.48 364.74 307.79 367.46 303.28 370.32"/>
              <polygon class="cls-16" points="297.92 373.74 293.61 371.02 298.12 368.15 302.43 370.87 297.92 373.74"/>
              <polygon class="cls-16" points="305.64 375.07 301.53 372.48 305.82 369.75 309.92 372.34 305.64 375.07"/>
              <polygon class="cls-16" points="311 371.66 306.89 369.07 311.18 366.34 315.29 368.93 311 371.66"/>
              <polygon class="cls-16" points="316.36 368.25 312.25 365.66 316.54 362.93 320.65 365.52 316.36 368.25"/>
              <polygon class="cls-16" points="321.72 364.83 317.62 362.24 321.91 359.51 326.01 362.1 321.72 364.83"/>
              <polygon class="cls-16" points="327.08 361.42 322.98 358.83 327.27 356.1 331.37 358.69 327.08 361.42"/>
              <polygon class="cls-16" points="332.44 358.01 328.34 355.42 332.63 352.69 336.73 355.28 332.44 358.01"/>
              <polygon class="cls-16" points="337.8 354.6 333.7 352.01 337.99 349.28 342.09 351.87 337.8 354.6"/>
              <polygon class="cls-16" points="343.16 351.18 339.06 348.59 343.35 345.86 347.45 348.45 343.16 351.18"/>
              <polygon class="cls-16" points="348.53 347.77 344.42 345.18 348.71 342.45 352.82 345.04 348.53 347.77"/>
              <polygon class="cls-16" points="353.89 344.36 349.78 341.77 354.07 339.04 358.18 341.63 353.89 344.36"/>
              <polygon class="cls-16" points="369.97 334.12 365.87 331.53 370.16 328.8 374.26 331.39 369.97 334.12"/>
              <polygon class="cls-16" points="372.31 339.13 368.21 336.54 375.29 332.04 379.39 334.63 372.31 339.13"/>
              <polygon class="cls-16" points="364.38 344.18 360.27 341.59 367.14 337.23 371.24 339.82 364.38 344.18"/>
              <polygon class="cls-16" points="356.44 349.23 352.34 346.64 359.2 342.28 363.31 344.87 356.44 349.23"/>
              <polygon class="cls-16" points="314.41 375.99 310.31 373.4 317.17 369.03 321.27 371.62 314.41 375.99"/>
              <polygon class="cls-16" points="306.48 381.04 302.37 378.45 309.23 374.08 313.34 376.67 306.48 381.04"/>
              <polygon class="cls-16" points="298.54 386.09 294.44 383.5 301.3 379.13 305.4 381.72 298.54 386.09"/>
              <polygon class="cls-16" points="359.25 340.95 355.15 338.36 364.58 332.35 368.68 334.94 359.25 340.95"/>
              <polygon class="cls-16" points="353.07 325.63 348.97 323.04 354.97 319.22 359.08 321.81 353.07 325.63"/>
              <polygon class="cls-16" points="283.36 376.5 279.25 373.91 286.12 369.55 290.22 372.14 283.36 376.5"/>
              <polygon class="cls-16" points="293.41 382.85 289.31 380.26 300.46 373.16 304.56 375.75 293.41 382.85"/>
              <polygon class="cls-16" points="288.49 379.74 284.18 377.02 292.76 371.56 297.07 374.28 288.49 379.74"/>
              <polygon class="cls-16" points="322.34 370.94 318.24 368.35 351.27 347.33 355.37 349.92 322.34 370.94"/>
              <path class="cls-16" d="M356.69,336.07l-4.1-2.59,2.92-1.86c.27-.17,.22-.35,.17-.55,0-.03-.21-.03-.21-.05v-.02c0-.1,.11-.16,0-.24l-4.22-2.74,8.79-5.57,9.05,5.7-12.41,7.92Z"/>
            </g>
          </g>
          <g>
            <path class="cls-15" d="M280.12,367.84s5.16,2.74,6.22,5.86c1.07,3.13,3.91,8.01,8.36,10.55,4.45,2.54,8.36,3.13,8.36,3.13,0,0,4.27,4.1,7.47,6.64s40.55,25.99,47.31,28.53c6.76,2.54,24.37,2.74,35.21,.39,10.85-2.34,20.99-6.25,20.99-6.25,0,0-.18-9.77-10.85-13.68-10.67-3.91-43.22-6.06-47.66-9.18-4.45-3.13-43.22-20.32-43.22-20.32,0,0-25.61-17.58-28.46-15.24-2.85,2.34-3.73,9.57-3.73,9.57Z"/>
            <path class="cls-15" d="M355.17,317.04s1.6,2.15,5.51,3.52c3.91,1.37,5.87,1.56,6.4,3.91,.53,2.34-10.67,1.56-10.67,1.56,0,0,.89,2.54,3.56,3.32,2.67,.78,4.09,2.54,6.22,4.3,2.13,1.76,7.29,3.13,9.6,2.93,2.31-.2,4.15,.59,4.15,.59l.59,3.52,45.41,23.45,9.07-7.42s-25.43-23.25-35.04-25.4-25.79-11.33-26.68-11.72c-.89-.39-13.02-8.4-13.89-7.62-.87,.78-4.25,5.08-4.25,5.08Z"/>
            <path class="cls-30" d="M463.91,493.87c-6.75-12.72-5.79-28.62,.96-39.23,14.48-20.14,37.64-22.26,56.94-36.05,4.07-2.68,10.88-3.84,14.07-.31-1.68-8.83-5.84-10.48-8.6-10.64-6.11-.35-10.81,4.14-33.13,16.26-26.7,14.49-31.2,13.08-37.31,18.73-6.11,5.65-9.65,19.08-8.69,33.57,.97,14.49,10.62,26.15,18.34,25.8,1.85-.08,3.48-.4,5.24-.98-3.49-1.33-6.37-3.97-7.82-7.15Z"/>
            <path class="cls-42" d="M521.81,418.6c-19.3,13.78-42.46,15.9-56.94,36.05-6.75,10.6-7.72,26.5-.96,39.23,1.44,3.17,4.33,5.82,7.82,7.15,5.57-1.86,12.43-6.49,31.75-15.63,14.81-7,22.68-13.07,27.02-21.91,3.1-6.33,4.26-13.89,5.47-25.09,.98-9.12,.78-15.56-.08-20.1-3.19-3.52-10-2.37-14.07,.31Z"/>
            <g>
              <path class="cls-40" d="M388.35,328.91s-6.39-14.86-9.17-16.95c-2.78-2.09-9.51-2.08-14.07-2.56-3.44-.37-10.61,1.32-11.08,4.68-.47,3.35,1.84,3.92,4.89,5.05,3.05,1.12,7.33,2.11,8.68,3.32s1.16,3.32-1.22,2.8c-2.38-.52-5.77-3.28-8.5-2.5-2.15,.61-2.64,4.2,1.94,5.53,4.58,1.34,3.42,2.49,6.2,3.86,2.79,1.36,6.24,3.75,9.4,3.4,3.67-.41,10.94,5.16,10.94,5.16l8.93-7.84-6.92-3.93Z"/>
              <path class="cls-2" d="M485.5,325.46l-37.24,9.95-48.03-12.94s-9.65-4.33-16.89,4.68c-5.74,9.14-3.13,12.23-3.13,12.23l62.8,30.79s8.9,5.69,23.77,3.05c13.69-2.43,54.15,8.85,54.15,8.85,0,0,5.2-17.89-2.82-37.6-8.46-20.79-26.82-21.85-32.61-19.02Z"/>
              <path class="cls-2" d="M475.83,325.68s-25.77,6.41-41.47,19.68c-13.71,11.59-21.84,38.5-20.53,86.26,.91,33.27-.66,34.19,1.21,45.12,1.15,6.73,6.81,16.64,15.7,21.67,10.55,5.97,20.23,10.59,35.03,7.08,14.9-3.54,48.32-22.12,48.32-22.12,0,0,10.2-25.02,10.2-37.74s1.7-58.92-2.95-81.69c-7.85-38.48-35.03-40.81-45.5-38.26Z"/>
              <path class="cls-40" d="M479.19,310.57l2.62,26.29s-.87,10.75-14.69,13.42c-14.17,2.74-16.79-7.82-16.79-7.82l.36-6.29-1.83-14.48,30.34-11.13Z"/>
              <path class="cls-40" d="M425.13,262.64s-2.59,27.31-2.16,36.42c.39,8.29,3.85,24.99,14.38,29.22,8.76,3.51,19.12-2.47,29.94-10.84,10.82-8.37,14.29-10.41,15.89-17.46,1.6-7.05,12.62-40.86,12.62-40.86l-70.67,3.52Z"/>
              <path class="cls-53" d="M496.9,254.04c-2.01-11.39-8.49-19.14-15.39-23.15-13.63-7.93-27.26-7.53-39.64-3.31-11.66,3.98-17.22,9.9-19.57,15.07-1.29,2.83-1.96,5.45-2.22,7.81-.05,3.32,.57,6.64,1.98,9.66,1.99,4.27,5.76,7.09,8.53,10.69,2.25,2.93,3.63,6.21,3.98,10.04,.31,3.41,.54,7.19,.34,10.84l3.71,1.48s-.7-9.78,4.41-10.5c7.82-1.1,8.39,11.32,7.22,14.97-5.01,15.63,2.66,18.5,2.66,18.5,8.91,4.02,18.4,5.06,26.48-1.49,6.7-5.44,11.36-13.57,14.08-22.13,3.73-11.75,5.59-26.26,3.43-38.49Z"/>
              <path class="cls-40" d="M312.46,389.97l-8.79-5.15s-2.61,1.97-8.15-1.48c-6.65-4.13-6.33-8.16-8.93-10.6-3.38-3.18-5.26-3.91-8.68-6.63-3.96-3.14,.24-11.13,6.27-11.4,1.95-.09,4.78,.09,10.61,2.65,3.62,1.59,8.37,7.25,8.37,7.25,0,0-2.71-4.79-4.02-6.19-1.31-1.4,.51-4.44,3.14-2.02,2.64,2.41,6.67,8.12,6.81,10.14s2.2,7.97,2.2,7.97l8.35,5.31-7.18,10.14Z"/>
              <path class="cls-2" d="M423.69,358.19l-54.35,31.78-47.72-20.72s-9.34-5.36-16.21,6.67c-3.52,6.15-.5,12.57-.5,12.57,0,0,41.05,27.62,55.42,32.58,7.11,2.45,14.73,3.31,29.74,1.92,16.71-1.55,30.17-8.19,41.27-14.38,7.66-4.27,17.56-17.72,14.56-34.19-3.08-16.89-12.56-20.47-22.21-16.23Z"/>
            </g>
            <path class="cls-50" d="M488.04,416.12c-14.64,6.18-29.91,12.72-35.7,14.49-5.79,1.77-12.87,14.84-12.22,29.68,.64,14.84,2.89,27.92,8.04,33.22,5.15,5.3,14.48,10.95,29.27,3.18,14.8-7.77,35.06-17.32,40.85-21.91,5.79-4.59,11.13-10.18,13.19-16.96,2.25-7.42,4.5-22.62,3.86-37.11-.59-13.18-7.4-25.44-18.66-19.79-11.26,5.65-16.08,9.89-28.63,15.2Z"/>
            <path class="cls-3" d="M456.83,442.63c6.11-5.65,10.61-4.24,37.31-18.73,22.32-12.11,27.02-16.61,33.13-16.26,4.19,.24,11.58,3.89,8.69,30.74-1.21,11.2-2.37,18.76-5.47,25.09-4.34,8.84-12.21,14.91-27.02,21.91-25.41,12.02-29.27,16.26-36.99,16.61-7.72,.35-17.37-11.31-18.34-25.8-.96-14.49,2.57-27.92,8.69-33.57Z"/>
            <g>
              <path class="cls-63" d="M493.49,456.59l15.5-8.63s4.19-2.79,7.96,11.31c1.45,5.43,1.02,21.56,1.06,38.54,.06,27.13-.1,57.45-.1,57.45l-15.5,8.63s-1.06-11.09-1.15-25.34c-.18-29.27-.39-74.42-7.76-81.95Z"/>
              <path class="cls-43" d="M493.49,456.59l-.06,89.94-8.26-2.83v11.31l17.24,8.88v-88.36s-.37-8.67-3.57-14.27c-5.36-9.37-5.34-4.67-5.34-4.67Z"/>
            </g>
          </g>
        </g>
        <g class="cls-41">
          <polygon class="cls-60" points="185.76 314.39 65.42 392.42 63.97 391.63 63.97 295.07 185.76 217.83 187.18 218.63 185.76 314.39"/>
          <g>
            <g>
              <polygon class="cls-6" points="187.21 315.17 65.42 392.41 65.42 295.85 187.2 218.61 187.21 315.17"/>
              <polygon class="cls-56" points="187.2 227.92 65.42 305.16 65.42 295.85 187.2 218.61 187.2 227.92"/>
            </g>
            <polygon class="cls-54" points="123.98 283.12 76.55 313.2 76.55 311.12 123.98 281.04 123.98 283.12"/>
            <polygon class="cls-54" points="123.98 292.07 76.55 322.15 76.55 320.08 123.98 290 123.98 292.07"/>
            <polygon class="cls-54" points="123.98 301.03 76.55 331.11 76.55 329.03 123.98 298.95 123.98 301.03"/>
            <polygon class="cls-54" points="123.98 309.99 76.55 340.07 76.55 337.99 123.98 307.91 123.98 309.99"/>
            <polygon class="cls-54" points="123.98 318.94 76.55 349.02 76.55 346.95 123.98 316.87 123.98 318.94"/>
            <polygon class="cls-48" points="176.63 306.52 136.83 331.77 136.82 270.53 176.63 245.28 176.63 306.52"/>
            <polygon class="cls-54" points="123.98 327.9 76.55 357.98 76.55 355.9 123.98 325.83 123.98 327.9"/>
          </g>
        </g>
        <g>
          <path class="cls-15" d="M235.02,330.88v.21s.03,.02,.03,.02c.14,.63,.58,1.24,1.35,1.73l23.96,15.2c.99,.63,2.29,.92,3.59,.89h0s0,0,0,0c.59-.01,1.17-.09,1.72-.24,.06-.02,.11-.04,.17-.06,.21-.06,.42-.13,.62-.21,.26-.11,.5-.23,.73-.38l65.12-41.31c.46-.29,.8-.64,1.04-1,.03-.04,.05-.08,.08-.12,.12-.21,.22-.42,.26-.64,0-.03,0-.07,0-.1,.03-.17,.04-.32,.04-.44,0-.46-.08-5.43-.08-5.43l-3.67,1.92-21.62-13.72c-1.89-1.2-4.95-1.2-6.83,0l-48.11,30.52h0l-13.72,8.7s-.05-.07-.07-.09c-1.28-1.41-4.64-.41-4.64-.41l.03,4.58c-.01,.13-.01,.26,0,.4Z"/>
          <g>
            <path class="cls-46" d="M346.64,117.01s-1.81-1.66-3.02-2.43c-.77-.49-1.31-.8-1.67-.99-.08-.05-.17-.09-.25-.13-.23-.11-.34-.15-.34-.15h0c-.65-.15-1.43,0-2.27,.54l-138.97,88.14c-2.2,1.4-3.99,4.79-3.99,7.59v111.81c0,1.37,.44,2.34,1.14,2.81h0s3.88,3.43,5.03,3.38c1.16-.06,1.16-4.42,1.16-4.42l-.32-1.15,135.95-86.23c2.2-1.4,3.99-4.79,3.99-7.59V127.04c.1-.07,.2-.15,.3-.24,1.86-1.82,3.27-9.79,3.27-9.79Z"/>
            <path class="cls-1" d="M343.06,139.59v-12.55c.1-.07,.2-.15,.3-.24,1.86-1.82,3.27-9.79,3.27-9.79,0,0-1.81-1.66-3.02-2.43-.77-.49-1.31-.8-1.67-.99-.08-.05-.17-.09-.25-.13-.23-.11-.34-.15-.34-.15h0c-.65-.15-1.43,0-2.27,.54l-138.97,88.14c-1.08,.69-2.06,1.86-2.78,3.2l16.39,11.9,129.25-77.41s.04-.03,.1-.09Z"/>
            <path class="cls-59" d="M333.69,303.08s0-.07,0-.1c.03-.17,.04-.32,.04-.44,0-.46-.08-5.43-.08-5.43l-3.67,1.92-21.62-13.72c-1.89-1.2-4.95-1.2-6.83,0l-61.83,39.22s-.05-.07-.07-.09c-1.28-1.41-4.64-.41-4.64-.41l.03,4.58c-.01,.13-.01,.26,0,.4v.21s.03,.02,.03,.02c.14,.63,.58,1.24,1.35,1.73l23.96,15.2c1.89,1.2,4.95,1.2,6.83,0l65.12-41.31c.46-.29,.8-.64,1.04-1,.03-.04,.05-.08,.08-.12,.12-.21,.22-.42,.26-.64Z"/>
            <path class="cls-47" d="M333.65,297.11l-3.67,1.92-21.62-13.72c-1.89-1.2-4.95-1.2-6.83,0l-48.11,30.52,10.53,16.05v15.17c1.18-.03,2.35-.32,3.25-.89l65.12-41.31c.46-.29,.8-.64,1.04-1,.03-.04,.05-.08,.08-.12,.12-.21,.22-.42,.26-.64,0-.03,0-.07,0-.1,.03-.17,.04-.32,.04-.44,0-.46-.08-5.43-.08-5.43Z"/>
            <path class="cls-64" d="M332.31,300.03l-65.12,41.31c-1.89,1.2-4.95,1.2-6.83,0l-23.96-15.2c-1.89-1.2-1.89-3.14,0-4.34l65.12-41.31c1.89-1.2,4.95-1.2,6.83,0l23.96,15.2c1.89,1.2,1.89,3.14,0,4.34Z"/>
            <g>
              <polygon class="cls-47" points="293.16 305.72 275.82 316.72 275.81 275.8 293.16 264.8 293.16 305.72"/>
              <polygon class="cls-59" points="275.83 316.29 269.8 312.47 269.8 271.55 275.83 275.37 275.83 316.29"/>
            </g>
            <g>
              <polygon class="cls-57" points="341.75 232.83 206.2 318.8 206.19 211.33 341.75 125.36 341.75 232.83"/>
              <polygon class="cls-1" points="341.86 232.74 206.31 318.73 205.17 318 340.72 232.02 341.86 232.74"/>
              <polygon class="cls-17" points="342.12 232.93 340.69 232.03 340.7 124.56 342.12 125.46 342.12 232.93"/>
              <path class="cls-32" d="M347.44,119.58c0-2.79-1.79-3.93-3.99-2.53l-138.97,88.14c-2.2,1.4-3.99,4.79-3.99,7.59v111.81c0,2.79,1.79,3.93,3.99,2.53l138.97-88.14c2.2-1.4,3.99-4.79,3.99-7.59V119.58Zm-141.25,199.22v-107.47s135.55-85.97,135.55-85.97v107.47s-135.55,85.97-135.55,85.97Z"/>
            </g>
          </g>
        </g>
        <g class="cls-41">
          <polygon class="cls-43" points="442.66 213.55 322.32 291.58 320.87 290.79 320.87 194.24 442.66 117 444.08 117.79 442.66 213.55"/>
          <g>
            <polygon class="cls-3" points="444.11 214.35 322.32 291.59 322.32 195.03 444.1 117.79 444.11 214.35"/>
            <g>
              <polygon class="cls-6" points="333.75 205.6 330.36 207.74 330.36 204.7 333.75 202.55 333.75 205.6"/>
              <polygon class="cls-56" points="383.3 174.17 337.53 203.2 337.53 200.16 383.3 171.13 383.3 174.17"/>
              <polygon class="cls-6" points="333.75 212.74 330.36 214.88 330.36 211.84 333.75 209.69 333.75 212.74"/>
              <polygon class="cls-56" points="358.67 196.93 337.53 210.34 337.53 207.3 358.67 193.89 358.67 196.93"/>
              <polygon class="cls-6" points="333.75 219.88 330.36 222.02 330.36 218.98 333.75 216.83 333.75 219.88"/>
              <polygon class="cls-56" points="369.6 197.14 337.53 217.48 337.53 214.44 369.6 194.09 369.6 197.14"/>
              <polygon class="cls-6" points="333.75 227.01 330.36 229.16 330.36 226.12 333.75 223.97 333.75 227.01"/>
              <polygon class="cls-56" points="375.82 200.34 337.53 224.62 337.53 221.58 375.82 197.29 375.82 200.34"/>
            </g>
            <g>
              <polygon class="cls-6" points="333.75 237.4 330.36 239.55 330.36 236.5 333.75 234.36 333.75 237.4"/>
              <polygon class="cls-66" points="361.77 219.63 337.53 235.01 337.53 231.96 361.77 216.59 361.77 219.63"/>
              <polygon class="cls-6" points="333.75 244.54 330.37 246.69 330.37 243.64 333.75 241.5 333.75 244.54"/>
              <polygon class="cls-66" points="382.03 213.92 337.53 242.15 337.53 239.1 382.03 210.88 382.03 213.92"/>
              <polygon class="cls-6" points="333.75 251.68 330.37 253.83 330.37 250.78 333.75 248.64 333.75 251.68"/>
              <polygon class="cls-66" points="355.07 238.16 337.53 249.29 337.53 246.24 355.07 235.12 355.07 238.16"/>
              <polygon class="cls-6" points="333.75 258.82 330.37 260.97 330.37 257.92 333.75 255.78 333.75 258.82"/>
              <polygon class="cls-66" points="368.9 236.53 337.53 256.42 337.53 253.38 368.9 233.48 368.9 236.53"/>
            </g>
            <g>
              <polygon class="cls-6" points="405.88 159.13 408.46 157.49 408.46 155.17 405.88 156.81 405.88 159.13"/>
              <polygon class="cls-6" points="429.31 141.95 411.34 153.34 411.34 155.66 429.31 144.27 429.31 141.95"/>
              <polygon class="cls-6" points="405.88 164.57 408.46 162.93 408.46 160.61 405.88 162.25 405.88 164.57"/>
              <polygon class="cls-6" points="419.64 153.52 411.34 158.79 411.34 161.11 419.64 155.84 419.64 153.52"/>
              <polygon class="cls-6" points="405.88 170.02 408.46 168.38 408.46 166.06 405.88 167.7 405.88 170.02"/>
              <polygon class="cls-6" points="423.94 156.24 411.34 164.23 411.34 166.55 423.94 158.57 423.94 156.24"/>
              <polygon class="cls-6" points="405.88 175.46 408.46 173.82 408.46 171.5 405.88 173.14 405.88 175.46"/>
              <polygon class="cls-6" points="426.38 160.14 411.34 169.68 411.34 172 426.38 162.47 426.38 160.14"/>
              <polygon class="cls-6" points="405.88 183.38 408.46 181.75 408.46 179.42 405.88 181.06 405.88 183.38"/>
              <polygon class="cls-6" points="423.06 170.17 411.34 177.6 411.34 179.92 423.06 172.49 423.06 170.17"/>
              <polygon class="cls-6" points="405.88 188.83 408.47 187.19 408.47 184.87 405.88 186.51 405.88 188.83"/>
              <polygon class="cls-6" points="411.34 183.04 411.34 185.36 432.84 171.73 432.84 169.41 411.34 183.04"/>
              <polygon class="cls-6" points="405.88 194.27 408.47 192.64 408.47 190.31 405.88 191.95 405.88 194.27"/>
              <polygon class="cls-6" points="419.82 183.11 411.34 188.49 411.34 190.81 419.82 185.44 419.82 183.11"/>
              <polygon class="cls-6" points="405.88 199.72 408.47 198.08 408.47 195.76 405.88 197.4 405.88 199.72"/>
              <polygon class="cls-6" points="411.35 196.25 426.5 186.64 426.5 184.32 411.35 193.93 411.35 196.25"/>
            </g>
          </g>
        </g>
        <g>
          <path class="cls-19" d="M292.75,423.97l-62.47-37.94c-2.3-1.46-6.04-1.46-8.34,0l-40.93,24.38c-2.3,1.46-1.93,5.17,.38,6.63l61.98,39.31c2.3,1.46,6.04,1.46,8.34,0l40.55-25.72c2.3-1.46,2.79-5.21,.49-6.67Z"/>
          <g>
            <path class="cls-62" d="M292.26,428.75l-40.55,25.72c-2.3,1.46-6.04,1.46-8.34,0l-61.98-39.31c-2.3-1.46-2.68-5.17-.38-6.63l40.93-24.38c2.3-1.46,6.04-1.46,8.34,0l62.47,37.94c2.3,1.46,1.82,5.21-.49,6.67Z"/>
            <g>
              <path class="cls-31" d="M292.26,426.87l-40.55,25.72c-2.3,1.46-6.04,1.46-8.34,0l-61.98-39.31c-2.3-1.46-2.3-3.83,0-5.29l40.55-25.72c2.3-1.46,6.04-1.46,8.34,0l61.98,39.31c2.3,1.46,2.3,3.83,0,5.29Z"/>
              <polygon class="cls-51" points="244.95 448.3 185.56 410.63 226.11 384.91 285.5 422.58 244.95 448.3"/>
              <path class="cls-33" d="M252.13,401.41l-26.02-16.5-40.55,25.72,40.89,25.94c.07-.4,.14-.8,.23-1.2,3.18-12.6,11.2-25.57,25.44-33.96Z"/>
              <path class="cls-61" d="M270.26,436.44c.95,.6,.95,1.58,0,2.19-.95,.6-2.5,.6-3.45,0s-.95-1.58,0-2.19,2.5-.6,3.45,0Z"/>
            </g>
          </g>
        </g>
        <g>
          <path class="cls-15" d="M415.34,306.16h0s0,0,0-.01c-.17-.88-.42-1.84-.76-2.86-.04-.13-.08-.25-.12-.38-.09-.25-.18-.5-.27-.75-.06-.16-.12-.33-.19-.5-.09-.24-.19-.47-.29-.71-.08-.19-.16-.38-.24-.56-.1-.23-.2-.46-.31-.69-.1-.21-.2-.41-.3-.62-.11-.21-.21-.43-.32-.64-.13-.25-.26-.49-.4-.73-.1-.18-.19-.35-.29-.53-.24-.41-.48-.82-.74-1.22-.08-.12-.16-.24-.25-.37-.19-.29-.38-.57-.58-.85-.11-.15-.22-.3-.33-.45-.18-.24-.36-.49-.55-.72-.12-.15-.24-.3-.37-.45-.19-.23-.38-.45-.58-.67-.13-.14-.26-.28-.39-.42-.2-.22-.41-.42-.62-.63-.13-.13-.26-.25-.39-.37-.23-.21-.47-.41-.71-.61-.12-.1-.23-.2-.35-.29-.36-.28-.73-.55-1.1-.79-1.43-.92-2.75-1.66-3.99-2.27,0,0-.01-.01-.02-.02-.05-.02-.09-.04-.14-.06-.27-.13-.54-.24-.8-.36-.35-.15-.69-.29-1.03-.41-.14-.05-.3-.13-.44-.18-.11-.04-.22-.05-.33-.09-.36-.11-.71-.2-1.06-.28-.21-.05-.42-.11-.63-.14-.53-.09-1.05-.14-1.57-.14-.04,0-.07,0-.11,0-.12,0-.25,.03-.37,.04-.38,.02-.76,.05-1.14,.12-.19,.03-.38,.08-.57,.12-.37,.09-.74,.2-1.1,.34-.17,.06-.34,.12-.51,.19-.53,.23-1.06,.49-1.6,.82-.42,.26-.82,.54-1.21,.83-.08,.06-.17,.12-.25,.19-.03,.03-.07,.05-.1,.08-.02,.02-.04,.03-.07,.05-.33,.26-.64,.53-.95,.82-.03,.02-.05,.05-.07,.07-.13,.13-.26,.25-.39,.38,0,0-.02,.02-.02,.02-.2,.21-.39,.42-.58,.64-.03,.04-.07,.08-.1,.12-.33,.39-.63,.8-.91,1.23,0,.01-.02,.03-.03,.04-1.79,2.78-2.21,6.06-.92,9.96,0,0,11.43,10.03,18.34,12.36,6.91,2.34,13.35-.8,13.35-5.47,0-.63-.08-1.36-.23-2.15Z"/>
          <g>
            <path class="cls-44" d="M383.1,300.54s11.69,9.85,18.6,12.19,13.35-.8,13.35-5.47-4.32-14.89-10.69-18.97c-6.38-4.09-10.63-5.25-15.41-2.34-4.78,2.92-7.97,8.17-5.85,14.59Z"/>
            <path class="cls-14" d="M388.95,285.94c-3.75,2.29-6.5,6.01-6.5,10.6,.03,.09,.04,.17,.07,.26,0,0,11.91,10.03,18.94,12.41,6.28,2.12,12.17-.2,13.36-4.11-.97-5.15-4.94-13.28-10.46-16.82-6.38-4.09-10.63-5.25-15.41-2.34Z"/>
            <path class="cls-6" d="M388.95,285.94c-2.24,1.37-4.13,3.26-5.28,5.54,1.51,.84,2.96,1.53,4.24,1.96,6.28,2.12,12.17-.2,13.36-4.11,.43-1.79,.03-2.23-.92-3.35-4.3-2.1-7.7-2.3-11.4-.04Z"/>
            <path class="cls-45" d="M394.26,286.38c1.82,1.19,2.89,3.53,2.44,3.82-.45,.3-2.29-.43-4.11-1.62-1.82-1.19-2.92-2.4-2.47-2.7,.45-.3,2.32-.69,4.14,.5Z"/>
          </g>
        </g>
        <g>
          <path class="cls-67" d="M142.24,350.6l-32.43,25.89c-4.15,2.63-13.99-4.78-13.99-10.04v-45c0-5.26,3.36-11.66,7.51-14.29l35.48-22.5c4.15-2.63,14.49,2.77,14.54,7.45l-3.59,44.21c0,5.26-3.36,11.66-7.51,14.29Z"/>
          <path class="cls-23" d="M97.99,313.34c-1.35,2.58-2.19,5.48-2.19,8.1v45c0,5.26,9.85,12.67,13.99,10.04l32.43-25.89c2.12-1.34,4.03-3.67,5.39-6.32-15.33-9.54-33.44-22.84-49.63-30.94Z"/>
          <path class="cls-21" d="M97.99,313.34c-1.35,2.58-2.19,5.48-2.19,8.1v45c0,5.26,9.85,12.67,13.99,10.04l32.43-25.89c2.12-1.34,4.03-3.67,5.39-6.32-15.33-9.54-33.44-22.84-49.63-30.94Z"/>
          <path class="cls-24" d="M146.22,353.51l-35.48,22.5c-4.15,2.63-7.51,.5-7.51-4.76v-45c0-5.26,3.36-11.66,7.51-14.29l35.48-22.5c4.15-2.63,7.51-.5,7.51,4.76v45c0,5.26-3.36,11.66-7.51,14.29Z"/>
          <text class="cls-7" transform="translate(104.77 359.31) rotate(-32.38) scale(.93 .84) skewX(-29.84)"><tspan x="0" y="0">JSON</tspan></text>
          <path class="cls-34" d="M153.73,306.23v-12.01c0-5.26-3.36-7.39-7.51-4.76l-35.48,22.5c-4.15,2.63-7.51,9.03-7.51,14.29v31.78c14.24-23.05,31.89-41.73,50.5-51.8Z"/>
          <text class="cls-11" transform="translate(242.03 253.83) rotate(-32.38) scale(.93 .84) skewX(-29.84)"><tspan class="cls-25" x="0" y="0">Mh </tspan><tspan class="cls-27" x="43.5" y="0">t</tspan><tspan class="cls-25" x="52.23" y="0">ool</tspan></text>
        </g>
        <g>
          <path class="cls-28" d="M419.68,158.86l-32.43,25.89c-4.15,2.63-13.99-4.78-13.99-10.04v-45c0-5.26,3.36-11.66,7.51-14.29l35.48-22.5c4.15-2.63,14.49,2.77,14.54,7.45l-3.59,44.21c0,5.26-3.36,11.66-7.51,14.29Z"/>
          <path class="cls-56" d="M375.44,121.6c-1.35,2.58-2.19,5.48-2.19,8.1v45c0,5.26,9.85,12.67,13.99,10.04l32.43-25.89c2.12-1.34,4.03-3.67,5.39-6.32-15.33-9.54-33.44-22.84-49.63-30.94Z"/>
          <path class="cls-56" d="M375.44,121.6c-1.35,2.58-2.19,5.48-2.19,8.1v45c0,5.26,9.85,12.67,13.99,10.04l32.43-25.89c2.12-1.34,4.03-3.67,5.39-6.32-15.33-9.54-33.44-22.84-49.63-30.94Z"/>
          <path class="cls-18" d="M375.44,121.6c-1.35,2.58-2.19,5.48-2.19,8.1v45c0,5.26,9.85,12.67,13.99,10.04l32.43-25.89c2.12-1.34,4.03-3.67,5.39-6.32-15.33-9.54-33.44-22.84-49.63-30.94Z"/>
          <path class="cls-56" d="M423.66,161.78l-35.48,22.5c-4.15,2.63-7.51,.5-7.51-4.76v-45c0-5.26,3.36-11.66,7.51-14.29l35.48-22.5c4.15-2.63,7.51-.5,7.51,4.76v45c0,5.26-3.36,11.66-7.51,14.29Z"/>
          <text class="cls-8" transform="translate(386.25 165.17) rotate(-32.38) scale(.93 .84) skewX(-29.84)"><tspan x="0" y="0">XSD</tspan></text>
          <path class="cls-38" d="M431.17,114.49v-12.01c0-5.26-3.36-7.39-7.51-4.76l-35.48,22.5c-4.15,2.63-7.51,9.03-7.51,14.29v31.78c14.24-23.05,31.89-41.73,50.5-51.8Z"/>
        </g>
        <image width="183" height="86" transform="translate(233.22 225.31) rotate(-34.5) scale(.55 .49) skewX(-33.68)" xlink:href="../../../../../a.PNG"/>
      </g>
    </g>
  </g>
</svg>